<?xml version="1.0" encoding="UTF-8" standalone="no"?><!DOCTYPE svg PUBLIC "-//W3C//DTD SVG 1.1//EN" "http://www.w3.org/Graphics/SVG/1.1/DTD/svg11.dtd"><svg width="100%" height="100%" viewBox="0 0 1417 584" version="1.1" xmlns="http://www.w3.org/2000/svg" xmlns:xlink="http://www.w3.org/1999/xlink" xml:space="preserve" xmlns:serif="http://www.serif.com/" style="fill-rule:evenodd;clip-rule:evenodd;stroke-linejoin:round;stroke-miterlimit:2;"><path d="M1375,65.606c-0,-13.213 -10.727,-23.939 -23.939,-23.939l-1285.45,-0c-13.213,-0 -23.939,10.726 -23.939,23.939l-0,452.121c-0,13.213 10.726,23.94 23.939,23.94l1285.45,-0c13.212,-0 23.939,-10.727 23.939,-23.94l-0,-452.121Z"/><path d="M1122.2,437.5c-21.635,0 -41.534,-3.606 -59.696,-10.817c-18.162,-7.212 -33.921,-17.361 -47.276,-30.449c-13.354,-13.088 -23.704,-28.512 -31.049,-46.274c-7.345,-17.762 -11.018,-37.193 -11.018,-58.293c0,-21.368 3.673,-40.866 11.018,-58.494c7.345,-17.628 17.695,-32.986 31.049,-46.074c13.355,-13.087 29.114,-23.237 47.276,-30.448c18.162,-7.212 38.061,-10.818 59.696,-10.818c21.634,0 41.466,3.606 59.495,10.818c18.029,7.211 33.787,17.361 47.275,30.448c13.489,13.088 23.838,28.446 31.05,46.074c7.212,17.628 10.817,36.993 10.817,58.093c0,21.368 -3.605,40.932 -10.817,58.694c-7.212,17.762 -17.561,33.186 -31.05,46.274c-13.488,13.088 -29.246,23.237 -47.275,30.449c-18.029,7.211 -37.861,10.817 -59.495,10.817Zm-0,-73.718c9.615,0 18.563,-1.736 26.842,-5.208c8.28,-3.473 15.492,-8.481 21.635,-15.024c6.143,-6.544 10.884,-14.223 14.223,-23.037c3.339,-8.814 5.008,-18.43 5.008,-28.846c-0,-10.417 -1.669,-20.032 -5.008,-28.846c-3.339,-8.815 -8.08,-16.494 -14.223,-23.037c-6.143,-6.544 -13.355,-11.552 -21.635,-15.024c-8.279,-3.473 -17.227,-5.209 -26.842,-5.209c-9.883,0 -18.964,1.736 -27.244,5.209c-8.28,3.472 -15.492,8.48 -21.635,15.024c-6.143,6.543 -10.884,14.156 -14.222,22.836c-3.339,8.681 -5.008,18.363 -5.008,29.047c-0,10.416 1.669,20.032 5.008,28.846c3.338,8.814 8.079,16.493 14.222,23.037c6.143,6.543 13.355,11.551 21.635,15.024c8.28,3.472 17.361,5.208 27.244,5.208Z" style="fill:#fff;fill-rule:nonzero;"/><path d="M717.772,436.906l0,-291.073l131.815,0c20.513,0 37.908,2.911 52.185,8.733c14.276,5.821 25.157,13.999 32.641,24.533c7.485,10.534 11.227,23.008 11.227,37.423c0,17.188 -4.019,31.464 -12.058,42.83c-8.039,11.365 -19.682,18.989 -34.929,22.87l-1.247,-7.901c12.751,3.049 23.909,7.97 33.473,14.762c9.564,6.791 16.979,15.108 22.246,24.949c5.267,9.841 7.901,21.137 7.901,33.889c-0,14.969 -2.703,27.998 -8.109,39.087c-5.405,11.088 -13.029,20.375 -22.87,27.86c-9.841,7.484 -21.206,13.029 -34.097,16.632c-12.89,3.604 -26.959,5.406 -42.205,5.406l-135.973,-0Zm76.927,-66.115l56.551,-0c6.376,-0 11.712,-1.04 16.009,-3.119c4.297,-2.079 7.623,-5.197 9.979,-9.356c2.357,-4.158 3.535,-9.148 3.535,-14.969c-0,-5.544 -1.248,-10.118 -3.742,-13.722c-2.495,-3.604 -6.099,-6.445 -10.812,-8.524c-4.712,-2.079 -10.395,-3.119 -17.048,-3.119l-54.472,0l-0,52.809Zm-0,-109.776l41.581,-0c6.653,-0 12.198,-0.97 16.633,-2.911c4.435,-1.94 7.762,-4.782 9.98,-8.524c2.217,-3.742 3.326,-8.109 3.326,-13.098c0,-7.485 -2.495,-13.445 -7.484,-17.881c-4.99,-4.435 -12.891,-6.653 -23.702,-6.653l-40.334,0l-0,49.067Z" style="fill:#fff;fill-rule:nonzero;"/><path d="M546.6,437.5c-21.635,0 -41.533,-3.606 -59.695,-10.817c-18.163,-7.212 -33.921,-17.361 -47.276,-30.449c-13.355,-13.088 -23.705,-28.512 -31.05,-46.274c-7.345,-17.762 -11.017,-37.193 -11.017,-58.293c-0,-21.368 3.672,-40.866 11.017,-58.494c7.345,-17.628 17.695,-32.986 31.05,-46.074c13.355,-13.087 29.113,-23.237 47.276,-30.448c18.162,-7.212 38.06,-10.818 59.695,-10.818c21.635,0 41.466,3.606 59.495,10.818c18.029,7.211 33.788,17.361 47.276,30.448c13.488,13.088 23.838,28.446 31.05,46.074c7.211,17.628 10.817,36.993 10.817,58.093c-0,21.368 -3.606,40.932 -10.817,58.694c-7.212,17.762 -17.562,33.186 -31.05,46.274c-13.488,13.088 -29.247,23.237 -47.276,30.449c-18.029,7.211 -37.86,10.817 -59.495,10.817Zm0,-73.718c9.615,0 18.563,-1.736 26.843,-5.208c8.28,-3.473 15.491,-8.481 21.635,-15.024c6.143,-6.544 10.884,-14.223 14.222,-23.037c3.339,-8.814 5.008,-18.43 5.008,-28.846c0,-10.417 -1.669,-20.032 -5.008,-28.846c-3.338,-8.815 -8.079,-16.494 -14.222,-23.037c-6.144,-6.544 -13.355,-11.552 -21.635,-15.024c-8.28,-3.473 -17.228,-5.209 -26.843,-5.209c-9.882,0 -18.964,1.736 -27.243,5.209c-8.28,3.472 -15.492,8.48 -21.635,15.024c-6.143,6.543 -10.884,14.156 -14.223,22.836c-3.339,8.681 -5.008,18.363 -5.008,29.047c0,10.416 1.669,20.032 5.008,28.846c3.339,8.814 8.08,16.493 14.223,23.037c6.143,6.543 13.355,11.551 21.635,15.024c8.279,3.472 17.361,5.208 27.243,5.208Z" style="fill:#fff;fill-rule:nonzero;"/><path d="M147.302,437.5l-0,-291.667l134.583,0c19.722,0 37.361,4.028 52.917,12.084c15.555,8.055 27.708,19.027 36.458,32.916c8.75,13.889 13.125,29.861 13.125,47.917c0,19.444 -4.375,36.667 -13.125,51.667c-8.75,15 -20.903,26.736 -36.458,35.208c-15.556,8.472 -33.195,12.708 -52.917,12.708l-57.083,0l-0,99.167l-77.5,-0Zm156.25,-0l-74.167,-131.667l84.584,-10.416l82.5,142.083l-92.917,-0Zm-78.75,-158.333l45.833,-0c7.222,-0 13.264,-1.459 18.125,-4.375c4.861,-2.917 8.611,-6.945 11.25,-12.084c2.639,-5.139 3.959,-11.18 3.959,-18.125c-0,-6.666 -1.389,-12.43 -4.167,-17.291c-2.778,-4.861 -6.875,-8.611 -12.292,-11.25c-5.416,-2.639 -12.153,-3.959 -20.208,-3.959l-42.5,0l-0,67.084Z" style="fill:#fff;fill-rule:nonzero;"/><path d="M1270.83,94.087c0.181,28.479 23.268,51.566 51.746,51.745l0.337,0.001c-5.781,0.019 -11.533,0.953 -17,2.842c-7.242,2.503 -13.895,6.628 -19.377,11.981c-5.704,5.57 -10.109,12.439 -12.76,19.96c-1.921,5.45 -2.891,11.19 -2.946,16.964l-0.001,0.337c0,-28.746 -23.337,-52.084 -52.083,-52.084c28.746,0 52.083,-23.337 52.083,-52.083l0.001,0.337Z" style="fill:#fff;"/></svg>